<svg id="visual" viewBox="0 0 900 600" width="900" height="600" xmlns="http://www.w3.org/2000/svg" xmlns:xlink="http://www.w3.org/1999/xlink" version="1.1"><rect x="0" y="0" width="900" height="600" fill="#9DDBFF"></rect><g transform="translate(353.6389227058353 360.74274356285355)"><path d="M152.5 -216.2C212.1 -166.6 284.8 -141.4 332.9 -86.2C381.1 -31.1 404.5 54 350.4 80.9C296.3 107.9 164.7 76.7 93.4 93C22 109.3 11 173.2 -19.9 200.5C-50.7 227.8 -101.5 218.7 -115.1 183.6C-128.8 148.5 -105.3 87.6 -117.9 40.3C-130.6 -7 -179.4 -40.6 -187.5 -74.9C-195.7 -109.3 -163.1 -144.5 -125 -201.1C-87 -257.7 -43.5 -335.9 1.5 -337.9C46.4 -339.9 92.9 -265.8 152.5 -216.2" fill="#AAD1AC"></path></g></svg>