<svg id="visual" viewBox="0 0 960 540" width="960" height="540" xmlns="http://www.w3.org/2000/svg" xmlns:xlink="http://www.w3.org/1999/xlink" version="1.1"><rect x="0" y="0" width="960" height="540" fill="#9DDBFF"></rect><path d="M0 316L107 402L213 347L320 363L427 402L533 330L640 333L747 411L853 387L960 310L960 541L853 541L747 541L640 541L533 541L427 541L320 541L213 541L107 541L0 541Z" fill="#aad1ac"></path><path d="M0 359L107 379L213 425L320 411L427 432L533 408L640 386L747 419L853 369L960 369L960 541L853 541L747 541L640 541L533 541L427 541L320 541L213 541L107 541L0 541Z" fill="#c3dbb9"></path><path d="M0 419L107 434L213 432L320 454L427 438L533 459L640 418L747 465L853 387L960 444L960 541L853 541L747 541L640 541L533 541L427 541L320 541L213 541L107 541L0 541Z" fill="#d9e6c8"></path><path d="M0 432L107 445L213 454L320 494L427 473L533 472L640 493L747 427L853 488L960 476L960 541L853 541L747 541L640 541L533 541L427 541L320 541L213 541L107 541L0 541Z" fill="#edf1da"></path><path d="M0 499L107 498L213 512L320 492L427 498L533 502L640 489L747 482L853 519L960 521L960 541L853 541L747 541L640 541L533 541L427 541L320 541L213 541L107 541L0 541Z" fill="#fefded"></path></svg>