<?xml version="1.0" encoding="UTF-8" standalone="no"?>
<!-- Created with Inkscape (http://www.inkscape.org/) -->

<svg
   width="128"
   height="128"
   viewBox="0 0 33.866667 33.866667"
   version="1.1"
   id="svg5"
   xml:space="preserve"
   inkscape:version="1.2.2 (b0a8486541, 2022-12-01)"
   sodipodi:docname="icon.svg"
   xmlns:inkscape="http://www.inkscape.org/namespaces/inkscape"
   xmlns:sodipodi="http://sodipodi.sourceforge.net/DTD/sodipodi-0.dtd"
   xmlns="http://www.w3.org/2000/svg"
   xmlns:svg="http://www.w3.org/2000/svg"><sodipodi:namedview
     id="namedview7"
     pagecolor="#ffffff"
     bordercolor="#000000"
     borderopacity="0.25"
     inkscape:showpageshadow="2"
     inkscape:pageopacity="0.0"
     inkscape:pagecheckerboard="0"
     inkscape:deskcolor="#d1d1d1"
     inkscape:document-units="mm"
     showgrid="false"
     inkscape:zoom="3.0995851"
     inkscape:cx="28.552208"
     inkscape:cy="26.616466"
     inkscape:window-width="1920"
     inkscape:window-height="1130"
     inkscape:window-x="0"
     inkscape:window-y="0"
     inkscape:window-maximized="1"
     inkscape:current-layer="layer1" /><defs
     id="defs2"><inkscape:path-effect
       effect="bspline"
       id="path-effect1976"
       is_visible="true"
       lpeversion="1"
       weight="33.333333"
       steps="2"
       helper_size="0"
       apply_no_weight="true"
       apply_with_weight="true"
       only_selected="false" /></defs><g
     inkscape:label="Layer 1"
     inkscape:groupmode="layer"
     id="layer1"><path
       style="fill:#000000;stroke-width:0.0425919"
       d="m 7.6193209,18.057545 c -0.04743,-0.08448 0.0049,-0.17948 1.953115,-3.549193 1.1010151,-1.904318 1.9985921,-3.471117 1.9946141,-3.481773 -0.004,-0.01074 -0.258011,-0.01345 -0.564509,-0.0063 -1.7912171,0.04232 -3.3660001,-0.119438 -5.0819261,-0.521958 -1.291518,-0.302916 -2.053387,-0.6353073 -2.268957,-0.9898723 -0.300175,-0.493695 -0.931628,-2.17029 -1.45577,-3.865261 -0.22081,-0.714058 -0.239779,-0.798654 -0.18717,-0.834757 0.01823,-0.01253 0.25242,-0.02551 0.520347,-0.02882 l 0.487143,-0.006 1.558326,1.413065 c 1.50963,1.368909 1.562872,1.412925 1.703899,1.408662 0.08007,-0.0024 3.30547,-0.1028 7.1675631,-0.223061 7.984691,-0.24864 7.359224,-0.263593 8.406274,0.200958 0.912898,0.405083 1.480053,0.861013 1.682524,1.352744 0.16654,0.404467 0.03116,0.768393 -0.429294,1.1540713 -0.245833,0.205909 -1.111643,0.555141 -1.458792,0.588422 -0.13325,0.01279 -1.310211,0.05717 -2.615424,0.09864 l -2.373122,0.07541 -3.260496,3.46461 c -1.793273,1.905537 -3.317811,3.516647 -3.387866,3.58024 -0.07006,0.0636 -0.1926011,0.138638 -0.2723221,0.166744 -0.111829,0.03945 -1.985476,0.127898 -2.054401,0.09698 -0.0083,-0.0037 -0.03693,-0.04581 -0.06375,-0.09352 z M 8.9815919,4.8353567 c -0.979644,-1.525644 -1.128512,-1.779445 -1.098786,-1.873255 0.03182,-0.1006 0.07161,-0.109755 0.543307,-0.125648 1.353286,-0.04554 1.471015,-0.04278 1.6566531,0.03906 0.139208,0.06139 0.614252,0.492694 2.008998,1.824063 1.004672,0.959025 1.821172,1.755953 1.814447,1.770949 -0.01023,0.02255 -3.743147,0.15718 -3.779713,0.136276 -0.0065,-0.0037 -0.5216641,-0.800843 -1.1449061,-1.771454 z"
       id="path125" /><circle
       style="fill:none;stroke:#000000;stroke-width:0.854154;stroke-dasharray:none;stroke-opacity:1"
       id="path402"
       cx="29.073788"
       cy="-9.6045294"
       r="2.4926176"
       transform="scale(1,-1)" /><circle
       style="fill:none;stroke:#000000;stroke-width:0.854154;stroke-dasharray:none;stroke-opacity:1"
       id="path402-5"
       cx="22.060402"
       cy="-18.981577"
       r="2.4926176"
       transform="scale(1,-1)" /><circle
       style="fill:none;stroke:#000000;stroke-width:0.854154;stroke-dasharray:none;stroke-opacity:1"
       id="path402-5-3"
       cx="7.9457874"
       cy="-24.441189"
       r="2.4926176"
       transform="scale(1,-1)" /><circle
       style="fill:none;stroke:#000000;stroke-width:0.854154;stroke-dasharray:none;stroke-opacity:1"
       id="path402-5-3-5"
       cx="27.53746"
       cy="-28.557638"
       r="2.4926176"
       transform="scale(1,-1)" /><path
       style="fill:none;stroke:#000000;stroke-width:0.964999;stroke-dasharray:1.93, 0.964999;stroke-dashoffset:0;stroke-opacity:1"
       d="m 22.691023,9.2536513 3.654051,0.02002"
       id="path2078" /><path
       style="fill:none;stroke:#000000;stroke-width:0.964999;stroke-dasharray:1.93, 0.964999;stroke-dashoffset:0;stroke-opacity:1"
       d="m 27.872938,12.105478 -4.052616,4.886751"
       id="path2080" /><path
       style="fill:none;stroke:#000000;stroke-width:0.964999;stroke-dasharray:1.93, 0.964999;stroke-dashoffset:0;stroke-opacity:1"
       d="m 19.85467,19.926369 -9.567999,3.754508"
       id="path2082" /><path
       style="fill:none;stroke:#000000;stroke-width:0.964999;stroke-dasharray:1.93, 0.964999;stroke-dashoffset:0;stroke-opacity:1"
       d="m 10.445223,24.564631 14.561026,3.371292"
       id="path2084" /></g></svg>
