<?xml version="1.0" encoding="UTF-8" standalone="no"?>
<!-- Created with Inkscape (http://www.inkscape.org/) -->

<svg
   width="128"
   height="128"
   viewBox="0 0 33.866667 33.866667"
   version="1.1"
   id="svg5"
   xml:space="preserve"
   inkscape:version="1.2.2 (b0a8486541, 2022-12-01)"
   sodipodi:docname="icon.svg"
   xmlns:inkscape="http://www.inkscape.org/namespaces/inkscape"
   xmlns:sodipodi="http://sodipodi.sourceforge.net/DTD/sodipodi-0.dtd"
   xmlns="http://www.w3.org/2000/svg"
   xmlns:svg="http://www.w3.org/2000/svg"><sodipodi:namedview
     id="namedview7"
     pagecolor="#ffffff"
     bordercolor="#000000"
     borderopacity="0.25"
     inkscape:showpageshadow="2"
     inkscape:pageopacity="0.0"
     inkscape:pagecheckerboard="0"
     inkscape:deskcolor="#d1d1d1"
     inkscape:document-units="mm"
     showgrid="false"
     inkscape:zoom="2.7864975"
     inkscape:cx="40.373264"
     inkscape:cy="83.796952"
     inkscape:window-width="1920"
     inkscape:window-height="1130"
     inkscape:window-x="0"
     inkscape:window-y="0"
     inkscape:window-maximized="1"
     inkscape:current-layer="layer1" /><defs
     id="defs2"><inkscape:path-effect
       effect="bspline"
       id="path-effect1976"
       is_visible="true"
       lpeversion="1"
       weight="33.333333"
       steps="2"
       helper_size="0"
       apply_no_weight="true"
       apply_with_weight="true"
       only_selected="false" /></defs><g
     inkscape:label="Layer 1"
     inkscape:groupmode="layer"
     id="layer1"><path
       style="fill:#000000;stroke-width:0.0425919"
       d="m 7.7746892,17.715556 c -0.04742,-0.08448 0.0049,-0.17948 1.953115,-3.549193 1.1010148,-1.904318 1.9985918,-3.471117 1.9946138,-3.481773 -0.004,-0.01074 -0.258011,-0.01345 -0.564509,-0.0063 C 9.3666922,10.72061 7.7919092,10.558852 6.0759832,10.156332 4.7844652,9.8534163 4.0225962,9.5210253 3.8070262,9.16646 3.5068512,8.672765 2.8753982,6.99617 2.3512562,5.301199 2.1304462,4.587141 2.1114772,4.502545 2.1640852,4.466442 c 0.01823,-0.01253 0.252421,-0.02551 0.520347,-0.02882 l 0.487144,-0.006 1.558325,1.4130655 c 1.50963,1.368909 1.562873,1.412925 1.7039,1.408662 0.08007,-0.0024 3.30547,-0.1028 7.1675628,-0.223061 7.984691,-0.24864 7.359224,-0.263593 8.406274,0.200958 0.912898,0.405083 1.480053,0.861013 1.682524,1.352744 0.16654,0.404467 0.03116,0.768393 -0.429294,1.1540708 -0.245833,0.20591 -1.111643,0.5551417 -1.458792,0.5884227 -0.13325,0.01279 -1.310211,0.05717 -2.615424,0.09864 l -2.373122,0.07541 -3.260496,3.46461 c -1.793273,1.905537 -3.31781,3.516647 -3.387865,3.58024 -0.07006,0.0636 -0.1926015,0.138638 -0.2723228,0.166744 -0.11183,0.03945 -1.985476,0.127898 -2.054401,0.09698 -0.0083,-0.0037 -0.03693,-0.04581 -0.06375,-0.09352 z M 9.1369602,4.493368 C 8.1573162,2.9677235 8.0084482,2.7139225 8.0381742,2.6201125 c 0.03182,-0.1006 0.07161,-0.109755 0.543307,-0.125648 1.353286,-0.04554 1.4710158,-0.04278 1.6566528,0.03906 0.139209,0.06139 0.614252,0.492694 2.008998,1.824063 1.004672,0.9590255 1.821172,1.7559535 1.814447,1.7709495 -0.01023,0.02255 -3.743146,0.15718 -3.779712,0.136276 -0.0065,-0.0037 -0.5216648,-0.800843 -1.1449068,-1.771454 z"
       id="path125" /><circle
       style="fill:none;stroke:#000000;stroke-width:0.854154;stroke-dasharray:none;stroke-opacity:1"
       id="path402"
       cx="29.813509"
       cy="-9.4253416"
       r="2.4926176"
       transform="scale(1,-1)" /><circle
       style="fill:none;stroke:#000000;stroke-width:0.854154;stroke-dasharray:none;stroke-opacity:1"
       id="path402-5"
       cx="22.800123"
       cy="-18.802387"
       r="2.4926176"
       transform="scale(1,-1)" /><circle
       style="fill:none;stroke:#000000;stroke-width:0.854154;stroke-dasharray:none;stroke-opacity:1"
       id="path402-5-3"
       cx="8.6855068"
       cy="-24.261999"
       r="2.4926176"
       transform="scale(1,-1)" /><circle
       style="fill:none;stroke:#000000;stroke-width:0.854154;stroke-dasharray:none;stroke-opacity:1"
       id="path402-5-3-5"
       cx="28.277182"
       cy="-28.378448"
       r="2.4926176"
       transform="scale(1,-1)" /><path
       style="fill:none;stroke:#000000;stroke-width:0.964999;stroke-dasharray:1.93, 0.964999;stroke-dashoffset:0;stroke-opacity:1"
       d="m 23.430743,9.0744628 3.654051,0.02002"
       id="path2078" /><path
       style="fill:none;stroke:#000000;stroke-width:0.964999;stroke-dasharray:1.93, 0.964999;stroke-dashoffset:0;stroke-opacity:1"
       d="M 28.612658,11.926289 24.560042,16.81304"
       id="path2080" /><path
       style="fill:none;stroke:#000000;stroke-width:0.964999;stroke-dasharray:1.93, 0.964999;stroke-dashoffset:0;stroke-opacity:1"
       d="m 20.59439,19.74718 -9.567999,3.754508"
       id="path2082" /><path
       style="fill:none;stroke:#000000;stroke-width:0.964999;stroke-dasharray:1.93, 0.964999;stroke-dashoffset:0;stroke-opacity:1"
       d="m 11.184943,24.385442 14.561026,3.371292"
       id="path2084" /></g></svg>
