<?xml version="1.0" encoding="UTF-8" standalone="no"?>
<!-- Created with Inkscape (http://www.inkscape.org/) -->

<svg
   width="128"
   height="128"
   viewBox="0 0 33.866667 33.866667"
   version="1.1"
   id="svg5"
   xml:space="preserve"
   inkscape:version="1.2.2 (b0a8486541, 2022-12-01)"
   sodipodi:docname="icon\.svg"
   xmlns:inkscape="http://www.inkscape.org/namespaces/inkscape"
   xmlns:sodipodi="http://sodipodi.sourceforge.net/DTD/sodipodi-0.dtd"
   xmlns="http://www.w3.org/2000/svg"
   xmlns:svg="http://www.w3.org/2000/svg"><sodipodi:namedview
     id="namedview7"
     pagecolor="#ffffff"
     bordercolor="#000000"
     borderopacity="0.25"
     inkscape:showpageshadow="2"
     inkscape:pageopacity="0.0"
     inkscape:pagecheckerboard="0"
     inkscape:deskcolor="#d1d1d1"
     inkscape:document-units="mm"
     showgrid="false"
     inkscape:zoom="1.5079442"
     inkscape:cx="-107.09945"
     inkscape:cy="20.889367"
     inkscape:window-width="1920"
     inkscape:window-height="1130"
     inkscape:window-x="0"
     inkscape:window-y="0"
     inkscape:window-maximized="1"
     inkscape:current-layer="layer1" /><defs
     id="defs2"><inkscape:path-effect
       effect="bspline"
       id="path-effect1976"
       is_visible="true"
       lpeversion="1"
       weight="33.333333"
       steps="2"
       helper_size="0"
       apply_no_weight="true"
       apply_with_weight="true"
       only_selected="false" /></defs><g
     inkscape:label="Layer 1"
     inkscape:groupmode="layer"
     id="layer1"><path
       style="fill:#000000;stroke-width:0.0425919"
       d="m 6.9574617,32.574632 c -0.047425,-0.08448 0.00486,-0.17948 1.9531152,-3.549193 1.1010141,-1.904318 1.9985911,-3.471117 1.9946131,-3.481773 -0.004,-0.01074 -0.258011,-0.01345 -0.564509,-0.0063 C 8.5494642,25.579684 6.9746817,25.417928 5.2587553,25.015408 3.9672376,24.712492 3.2053686,24.380101 2.9897984,24.025536 2.6896233,23.531841 2.0581702,21.855246 1.5340285,20.160275 1.3132183,19.446217 1.2942497,19.361621 1.346858,19.325518 c 0.018229,-0.01253 0.2524205,-0.02551 0.5203471,-0.02882 l 0.4871438,-0.006 1.5583251,1.413065 c 1.50963,1.368909 1.5628722,1.412925 1.7038992,1.408662 0.080074,-0.0024 3.3054706,-0.1028 7.1675628,-0.223061 7.984691,-0.24864 7.359224,-0.263593 8.406274,0.200958 0.912898,0.405083 1.480053,0.861013 1.682524,1.352744 0.16654,0.404467 0.03116,0.768393 -0.429294,1.154071 -0.245833,0.205909 -1.111643,0.555141 -1.458792,0.588422 -0.13325,0.01279 -1.310211,0.05717 -2.615424,0.09864 l -2.373122,0.07541 -3.260496,3.46461 c -1.793273,1.905537 -3.3178108,3.516647 -3.3878653,3.58024 -0.070059,0.0636 -0.1926015,0.138638 -0.2723222,0.166744 -0.1118295,0.03945 -1.9854763,0.127898 -2.0544009,0.09698 -0.00834,-0.0037 -0.036931,-0.04581 -0.063749,-0.09352 z M 8.3197324,19.352444 C 7.3400887,17.8268 7.1912204,17.572999 7.2209467,17.479189 c 0.031818,-0.1006 0.07161,-0.109755 0.5433071,-0.125648 1.3532861,-0.04554 1.4710148,-0.04278 1.6566523,0.03906 0.1392085,0.06139 0.6142519,0.492694 2.0089979,1.824063 1.004672,0.959025 1.821172,1.755953 1.814447,1.770949 -0.01023,0.02255 -3.7431464,0.15718 -3.7797121,0.136276 -0.00647,-0.0037 -0.5216647,-0.800843 -1.1449065,-1.771454 z"
       id="path125" /><circle
       style="fill:none;stroke:#000000;stroke-width:0.854154;stroke-dasharray:none;stroke-opacity:1"
       id="path402"
       cx="29.316778"
       cy="23.544327"
       r="2.4926176" /><circle
       style="fill:none;stroke:#000000;stroke-width:0.854154;stroke-dasharray:none;stroke-opacity:1"
       id="path402-5"
       cx="22.303392"
       cy="14.167279"
       r="2.4926176" /><circle
       style="fill:none;stroke:#000000;stroke-width:0.854154;stroke-dasharray:none;stroke-opacity:1"
       id="path402-5-3"
       cx="8.188777"
       cy="8.7076683"
       r="2.4926176" /><circle
       style="fill:none;stroke:#000000;stroke-width:0.854154;stroke-dasharray:none;stroke-opacity:1"
       id="path402-5-3-5"
       cx="27.780451"
       cy="4.5912185"
       r="2.4926176" /><path
       style="fill:none;stroke:#000000;stroke-width:0.964999;stroke-dasharray:1.93, 0.964999;stroke-dashoffset:0;stroke-opacity:1"
       d="m 22.934013,23.895205 3.654051,-0.02002"
       id="path2078" /><path
       style="fill:none;stroke:#000000;stroke-width:0.964999;stroke-dasharray:1.93, 0.964999;stroke-dashoffset:0;stroke-opacity:1"
       d="M 28.115928,21.043378 24.063312,16.156627"
       id="path2080" /><path
       style="fill:none;stroke:#000000;stroke-width:0.964999;stroke-dasharray:1.93, 0.964999;stroke-dashoffset:0;stroke-opacity:1"
       d="M 20.09766,13.222487 10.529661,9.4679796"
       id="path2082" /><path
       style="fill:none;stroke:#000000;stroke-width:0.964999;stroke-dasharray:1.93, 0.964999;stroke-dashoffset:0;stroke-opacity:1"
       d="M 10.688213,8.584225 25.249239,5.2129334"
       id="path2084" /></g></svg>
