<?xml version="1.0" encoding="UTF-8" standalone="no"?>
<!-- Created with Inkscape (http://www.inkscape.org/) -->

<svg
   width="1920"
   height="1080"
   viewBox="0 0 1920 1080"
   version="1.1"
   id="svg1"
   xml:space="preserve"
   inkscape:version="1.3 (0e150ed6c4, 2023-07-21)"
   sodipodi:docname="sunmapsvg.svg"
   xmlns:inkscape="http://www.inkscape.org/namespaces/inkscape"
   xmlns:sodipodi="http://sodipodi.sourceforge.net/DTD/sodipodi-0.dtd"
   xmlns="http://www.w3.org/2000/svg"
   xmlns:svg="http://www.w3.org/2000/svg"><sodipodi:namedview
     id="namedview1"
     pagecolor="#ffffff"
     bordercolor="#666666"
     borderopacity="1.0"
     inkscape:showpageshadow="2"
     inkscape:pageopacity="0.0"
     inkscape:pagecheckerboard="0"
     inkscape:deskcolor="#d1d1d1"
     inkscape:document-units="px"
     inkscape:zoom="8.0166666"
     inkscape:cx="1770.5613"
     inkscape:cy="78.523909"
     inkscape:window-width="1920"
     inkscape:window-height="2091"
     inkscape:window-x="0"
     inkscape:window-y="32"
     inkscape:window-maximized="0"
     inkscape:current-layer="layer1" /><defs
     id="defs1" /><g
     inkscape:label="Layer 1"
     inkscape:groupmode="layer"
     id="layer1"><path
       id="path3"
       style="fill:#053752;fill-opacity:1;stroke:none;stroke-width:1.29052;stroke-opacity:1"
       d="M -0.00859603,0.01899917 0.0024396,23.189975 C 16.596186,23.097945 324.91012,21.276673 400.66711,26.191128 c 121.83254,7.903454 168.77099,18.477053 201.67383,45.429688 28.21317,23.111057 42.22047,57.670184 52.70789,130.207304 3.186,22.03625 4.71285,37.27723 11.09375,110.8125 2.28611,26.34561 5.98415,101.30915 11.29687,229.01172 6.06013,145.66851 9.00349,206.7469 11.13867,231.12305 1.11854,12.76982 3.28819,38.41594 4.82227,56.99023 11.47643,138.95464 32.52367,186.60878 93.18945,211.00388 45.75971,18.4011 105.11639,24.7194 271.17386,28.8653 104.7459,2.6152 263.6809,0.4219 333.4726,-4.6036 90.9793,-6.551 136.4307,-16.7821 167.9043,-37.791 38.666,-25.8098 56.1721,-77.18665 66.5625,-195.36325 1.531,-17.41339 3.6904,-42.10907 4.8008,-54.8789 2.3273,-26.76869 5.9608,-101.2657 11.1699,-229.01367 2.0118,-49.33795 4.1006,-95.87802 4.6407,-103.42383 0.54,-7.54581 1.837,-34.61661 2.8828,-60.15625 1.046,-25.53964 2.748,-55.93404 3.7832,-67.54297 1.0352,-11.60893 3.1445,-36.30462 4.6875,-54.87891 2.9122,-35.05 7.9883,-73.72612 13.0175,-99.20312 9.226,-46.7356 29.6275,-82.007544 57.7696,-99.871097 58.8431,-37.350871 167.2773,-39.502384 191.5158,-39.502384 V 0.02061181 Z"
       sodipodi:nodetypes="ccsssssssssssscsssscssccc" /></g></svg>
